<svg version="1.1" viewBox="0.0 0.0 960.0 720.0" fill="none" stroke="none" stroke-linecap="square" stroke-miterlimit="10" xmlns:xlink="http://www.w3.org/1999/xlink" xmlns="http://www.w3.org/2000/svg"><clipPath id="p.0"><path d="m0 0l960.0 0l0 720.0l-960.0 0l0 -720.0z" clip-rule="nonzero"/></clipPath><g clip-path="url(#p.0)"><path fill="#000000" fill-opacity="0.0" d="m0 0l960.0 0l0 720.0l-960.0 0z" fill-rule="evenodd"/><path fill="#cfe2f3" d="m699.7154 229.1564l0 0c-2.235962 -20.650452 5.1051636 -41.093155 18.908264 -52.65349c13.80304 -11.5603485 31.647339 -12.210922 45.960876 -1.6756592l0 0c5.0702515 -12.007019 14.350342 -20.297043 25.033203 -22.362488c10.682861 -2.0654602 21.513733 2.336258 29.216553 11.873718l0 0c4.319214 -10.886337 12.80011 -18.200577 22.433167 -19.347229c9.633057 -1.1466522 19.054993 4.03656 24.922424 13.710358l0 0c7.8033447 -11.53949 20.218628 -16.398102 31.873657 -12.473465c11.65509 3.9246216 20.456604 15.927582 22.59607 30.81514l0 0c9.560425 3.2772675 17.523987 11.608505 21.833313 22.841202c4.309265 11.232697 4.541443 24.264938 0.6366577 35.72963l0 0c9.414185 15.398315 11.616394 35.916397 5.78479 53.897232c-5.831604 17.980835 -18.820862 30.723053 -34.120422 33.471436c-0.10784912 16.875671 -7.472229 32.360596 -19.254639 40.486176c-11.782471 8.12558 -26.143005 7.6230164 -37.54657 -1.3139954c-4.8573 20.211548 -18.52893 35.082977 -35.108337 38.18933c-16.579346 3.1063843 -33.09424 -6.109253 -42.409607 -23.665344c-11.418701 8.653473 -25.12024 11.14624 -38.013733 6.916046c-12.893494 -4.2302246 -23.892944 -14.827087 -30.517029 -29.400177l0 0c-11.668518 1.7160339 -22.950317 -5.8815613 -28.246338 -19.022064c-5.2960205 -13.140533 -3.4788208 -29.026672 4.5496826 -39.77423l0 0c-10.408569 -7.6990356 -15.719666 -22.976501 -13.163757 -37.865753c2.5559692 -14.889267 12.399719 -26.016388 24.398193 -27.57901z" fill-rule="evenodd"/><path fill="#000000" fill-opacity="0.0" d="m688.2503 295.39706l0 0c4.911865 3.6331787 10.586182 5.2812805 16.26117 4.7230225m7.4329224 54.074585c2.4404297 -0.35891724 4.8325195 -1.118927 7.114624 -2.2604675m61.41272 24.743652c-1.7164307 -3.2348633 -3.1535034 -6.69162 -4.286804 -10.31134m81.80774 -4.213257l0 0c0.8855591 -3.684845 1.4593506 -7.4773865 1.711731 -11.314301m55.08734 -27.856445c0.11480713 -17.966766 -8.005188 -34.417297 -20.872192 -42.285645m49.20752 -45.081146c-2.0837402 6.1180115 -5.2648926 11.545227 -9.293884 15.856094m-13.174072 -74.42853l0 0c0.3550415 2.4705963 0.51934814 4.9783173 0.49066162 7.4884186m-54.959473 -25.829346l0 0c-1.9465332 2.87854 -3.550232 6.0952606 -4.7611694 9.550003m-42.59491 -3.914383l0 0c-1.0373535 2.6145477 -1.8119507 5.38118 -2.3060303 8.236191m-51.94452 2.2527924l0 0c3.0287476 2.2292633 5.8306885 4.9124146 8.344421 7.990509m-73.21271 46.33893l0 0c0.3081665 2.846161 0.795105 5.657242 1.4562378 8.406921" fill-rule="evenodd"/><path stroke="#000000" stroke-width="2.0" stroke-linejoin="round" stroke-linecap="butt" d="m699.7154 229.1564l0 0c-2.235962 -20.650452 5.1051636 -41.093155 18.908264 -52.65349c13.80304 -11.5603485 31.647339 -12.210922 45.960876 -1.6756592l0 0c5.0702515 -12.007019 14.350342 -20.297043 25.033203 -22.362488c10.682861 -2.0654602 21.513733 2.336258 29.216553 11.873718l0 0c4.319214 -10.886337 12.80011 -18.200577 22.433167 -19.347229c9.633057 -1.1466522 19.054993 4.03656 24.922424 13.710358l0 0c7.8033447 -11.53949 20.218628 -16.398102 31.873657 -12.473465c11.65509 3.9246216 20.456604 15.927582 22.59607 30.81514l0 0c9.560425 3.2772675 17.523987 11.608505 21.833313 22.841202c4.309265 11.232697 4.541443 24.264938 0.6366577 35.72963l0 0c9.414185 15.398315 11.616394 35.916397 5.78479 53.897232c-5.831604 17.980835 -18.820862 30.723053 -34.120422 33.471436c-0.10784912 16.875671 -7.472229 32.360596 -19.254639 40.486176c-11.782471 8.12558 -26.143005 7.6230164 -37.54657 -1.3139954c-4.8573 20.211548 -18.52893 35.082977 -35.108337 38.18933c-16.579346 3.1063843 -33.09424 -6.109253 -42.409607 -23.665344c-11.418701 8.653473 -25.12024 11.14624 -38.013733 6.916046c-12.893494 -4.2302246 -23.892944 -14.827087 -30.517029 -29.400177l0 0c-11.668518 1.7160339 -22.950317 -5.8815613 -28.246338 -19.022064c-5.2960205 -13.140533 -3.4788208 -29.026672 4.5496826 -39.77423l0 0c-10.408569 -7.6990356 -15.719666 -22.976501 -13.163757 -37.865753c2.5559692 -14.889267 12.399719 -26.016388 24.398193 -27.57901z" fill-rule="evenodd"/><path stroke="#000000" stroke-width="2.0" stroke-linejoin="round" stroke-linecap="butt" d="m688.2503 295.39706l0 0c4.911865 3.6331787 10.586182 5.2812805 16.26117 4.7230225m7.4329224 54.074585c2.4404297 -0.35891724 4.8325195 -1.118927 7.114624 -2.2604675m61.41272 24.743652c-1.7164307 -3.2348633 -3.1535034 -6.69162 -4.286804 -10.31134m81.80774 -4.213257l0 0c0.8855591 -3.684845 1.4593506 -7.4773865 1.711731 -11.314301m55.08734 -27.856445c0.11480713 -17.966766 -8.005188 -34.417297 -20.872192 -42.285645m49.20752 -45.081146c-2.0837402 6.1180115 -5.2648926 11.545227 -9.293884 15.856094m-13.174072 -74.42853l0 0c0.3550415 2.4705963 0.51934814 4.9783173 0.49066162 7.4884186m-54.959473 -25.829346l0 0c-1.9465332 2.87854 -3.550232 6.0952606 -4.7611694 9.550003m-42.59491 -3.914383l0 0c-1.0373535 2.6145477 -1.8119507 5.38118 -2.3060303 8.236191m-51.94452 2.2527924l0 0c3.0287476 2.2292633 5.8306885 4.9124146 8.344421 7.990509m-73.21271 46.33893l0 0c0.3081665 2.846161 0.795105 5.657242 1.4562378 8.406921" fill-rule="evenodd"/><path fill="#cfe2f3" d="m648.0 159.69292l0 0c0 6.0751343 19.699463 11.0 44.0 11.0c24.300537 0 44.0 -4.9248657 44.0 -11.0l0 109.30708c0 6.0751343 -19.699463 11.0 -44.0 11.0c-24.300537 0 -44.0 -4.9248657 -44.0 -11.0z" fill-rule="evenodd"/><path fill="#e2edf7" d="m648.0 159.69292l0 0c0 -6.0751343 19.699463 -11.0 44.0 -11.0c24.300537 0 44.0 4.9248657 44.0 11.0l0 0c0 6.0751343 -19.699463 11.0 -44.0 11.0c-24.300537 0 -44.0 -4.9248657 -44.0 -11.0z" fill-rule="evenodd"/><path fill="#000000" fill-opacity="0.0" d="m736.0 159.69292l0 0c0 6.0751343 -19.699463 11.0 -44.0 11.0c-24.300537 0 -44.0 -4.9248657 -44.0 -11.0l0 0c0 -6.0751343 19.699463 -11.0 44.0 -11.0c24.300537 0 44.0 4.9248657 44.0 11.0l0 109.30708c0 6.0751343 -19.699463 11.0 -44.0 11.0c-24.300537 0 -44.0 -4.9248657 -44.0 -11.0l0 -109.30708" fill-rule="evenodd"/><path stroke="#000000" stroke-width="2.0" stroke-linejoin="round" stroke-linecap="butt" d="m736.0 159.69292l0 0c0 6.0751343 -19.699463 11.0 -44.0 11.0c-24.300537 0 -44.0 -4.9248657 -44.0 -11.0l0 0c0 -6.0751343 19.699463 -11.0 44.0 -11.0c24.300537 0 44.0 4.9248657 44.0 11.0l0 109.30708c0 6.0751343 -19.699463 11.0 -44.0 11.0c-24.300537 0 -44.0 -4.9248657 -44.0 -11.0l0 -109.30708" fill-rule="evenodd"/><path fill="#cfe2f3" d="m96.0 191.39108l0 0c0 7.7319794 25.072052 14.0 56.0 14.0c30.927948 0 56.0 -6.2680206 56.0 -14.0l0 129.82675c0 7.7319946 -25.072052 14.0 -56.0 14.0c-30.927948 0 -56.0 -6.2680054 -56.0 -14.0z" fill-rule="evenodd"/><path fill="#e2edf7" d="m96.0 191.39108l0 0c0 -7.7319946 25.072052 -14.0 56.0 -14.0c30.927948 0 56.0 6.2680054 56.0 14.0l0 0c0 7.7319794 -25.072052 14.0 -56.0 14.0c-30.927948 0 -56.0 -6.2680206 -56.0 -14.0z" fill-rule="evenodd"/><path fill="#000000" fill-opacity="0.0" d="m208.0 191.39108l0 0c0 7.7319794 -25.072052 14.0 -56.0 14.0c-30.927948 0 -56.0 -6.2680206 -56.0 -14.0l0 0c0 -7.7319946 25.072052 -14.0 56.0 -14.0c30.927948 0 56.0 6.2680054 56.0 14.0l0 129.82675c0 7.7319946 -25.072052 14.0 -56.0 14.0c-30.927948 0 -56.0 -6.2680054 -56.0 -14.0l0 -129.82675" fill-rule="evenodd"/><path stroke="#000000" stroke-width="2.0" stroke-linejoin="round" stroke-linecap="butt" d="m208.0 191.39108l0 0c0 7.7319794 -25.072052 14.0 -56.0 14.0c-30.927948 0 -56.0 -6.2680206 -56.0 -14.0l0 0c0 -7.7319946 25.072052 -14.0 56.0 -14.0c30.927948 0 56.0 6.2680054 56.0 14.0l0 129.82675c0 7.7319946 -25.072052 14.0 -56.0 14.0c-30.927948 0 -56.0 -6.2680054 -56.0 -14.0l0 -129.82675" fill-rule="evenodd"/><path fill="#cfe2f3" d="m336.0 208.0l216.0 0l0 120.0l-216.0 0z" fill-rule="evenodd"/><path stroke="#000000" stroke-width="2.0" stroke-linejoin="round" stroke-linecap="butt" d="m336.0 208.0l216.0 0l0 120.0l-216.0 0z" fill-rule="evenodd"/><path fill="#cfe2f3" d="m187.17323 512.0l93.92125 0l0 72.0l-93.92125 0z" fill-rule="evenodd"/><path stroke="#000000" stroke-width="2.0" stroke-linejoin="round" stroke-linecap="butt" d="m187.17323 512.0l93.92125 0l0 72.0l-93.92125 0z" fill-rule="evenodd"/><path fill="#cfe2f3" d="m323.82416 512.0l93.921265 0l0 72.0l-93.921265 0z" fill-rule="evenodd"/><path stroke="#000000" stroke-width="2.0" stroke-linejoin="round" stroke-linecap="butt" d="m323.82416 512.0l93.921265 0l0 72.0l-93.921265 0z" fill-rule="evenodd"/><path fill="#cfe2f3" d="m643.0866 512.0l93.921265 0l0 72.0l-93.921265 0z" fill-rule="evenodd"/><path stroke="#000000" stroke-width="2.0" stroke-linejoin="round" stroke-linecap="butt" d="m643.0866 512.0l93.921265 0l0 72.0l-93.921265 0z" fill-rule="evenodd"/><path fill="#000000" d="m443.46982 547.6179l0 0c0 -4.296509 3.215088 -7.77948 7.1810913 -7.77948l0 0c1.904541 0 3.7311096 0.8195801 5.07782 2.2785645c1.3467102 1.4589233 2.103302 3.437683 2.103302 5.5009155l0 0c0 4.29657 -3.215088 7.779541 -7.181122 7.779541l0 0c-3.9660034 0 -7.1810913 -3.4829712 -7.1810913 -7.779541z" fill-rule="evenodd"/><path stroke="#000000" stroke-width="2.0" stroke-linejoin="round" stroke-linecap="butt" d="m443.46982 547.6179l0 0c0 -4.296509 3.215088 -7.77948 7.1810913 -7.77948l0 0c1.904541 0 3.7311096 0.8195801 5.07782 2.2785645c1.3467102 1.4589233 2.103302 3.437683 2.103302 5.5009155l0 0c0 4.29657 -3.215088 7.779541 -7.181122 7.779541l0 0c-3.9660034 0 -7.1810913 -3.4829712 -7.1810913 -7.779541z" fill-rule="evenodd"/><path fill="#000000" d="m497.3176 547.6179l0 0c0 -4.296509 3.215088 -7.77948 7.1810913 -7.77948l0 0c1.904541 0 3.731079 0.8195801 5.07782 2.2785645c1.3467102 1.4589233 2.1032715 3.437683 2.1032715 5.5009155l0 0c0 4.29657 -3.215088 7.779541 -7.1810913 7.779541l0 0c-3.9660034 0 -7.1810913 -3.4829712 -7.1810913 -7.779541z" fill-rule="evenodd"/><path stroke="#000000" stroke-width="2.0" stroke-linejoin="round" stroke-linecap="butt" d="m497.3176 547.6179l0 0c0 -4.296509 3.215088 -7.77948 7.1810913 -7.77948l0 0c1.904541 0 3.731079 0.8195801 5.07782 2.2785645c1.3467102 1.4589233 2.1032715 3.437683 2.1032715 5.5009155l0 0c0 4.29657 -3.215088 7.779541 -7.1810913 7.779541l0 0c-3.9660034 0 -7.1810913 -3.4829712 -7.1810913 -7.779541z" fill-rule="evenodd"/><path fill="#000000" d="m543.2782 547.6179l0 0c0 -4.296509 3.215088 -7.77948 7.1810913 -7.77948l0 0c1.904602 0 3.7311401 0.8195801 5.07782 2.2785645c1.3467407 1.4589233 2.1033325 3.437683 2.1033325 5.5009155l0 0c0 4.29657 -3.215088 7.779541 -7.1811523 7.779541l0 0c-3.9660034 0 -7.1810913 -3.4829712 -7.1810913 -7.779541z" fill-rule="evenodd"/><path stroke="#000000" stroke-width="2.0" stroke-linejoin="round" stroke-linecap="butt" d="m543.2782 547.6179l0 0c0 -4.296509 3.215088 -7.77948 7.1810913 -7.77948l0 0c1.904602 0 3.7311401 0.8195801 5.07782 2.2785645c1.3467407 1.4589233 2.1033325 3.437683 2.1033325 5.5009155l0 0c0 4.29657 -3.215088 7.779541 -7.1811523 7.779541l0 0c-3.9660034 0 -7.1810913 -3.4829712 -7.1810913 -7.779541z" fill-rule="evenodd"/><path fill="#000000" d="m591.25195 547.6179l0 0c0 -4.296509 3.215088 -7.77948 7.1810913 -7.77948l0 0c1.904602 0 3.7311401 0.8195801 5.07782 2.2785645c1.3467407 1.4589233 2.1033325 3.437683 2.1033325 5.5009155l0 0c0 4.29657 -3.215088 7.779541 -7.1811523 7.779541l0 0c-3.9660034 0 -7.1810913 -3.4829712 -7.1810913 -7.779541z" fill-rule="evenodd"/><path stroke="#000000" stroke-width="2.0" stroke-linejoin="round" stroke-linecap="butt" d="m591.25195 547.6179l0 0c0 -4.296509 3.215088 -7.77948 7.1810913 -7.77948l0 0c1.904602 0 3.7311401 0.8195801 5.07782 2.2785645c1.3467407 1.4589233 2.1033325 3.437683 2.1033325 5.5009155l0 0c0 4.29657 -3.215088 7.779541 -7.1811523 7.779541l0 0c-3.9660034 0 -7.1810913 -3.4829712 -7.1810913 -7.779541z" fill-rule="evenodd"/><path fill="#000000" fill-opacity="0.0" d="m106.64042 238.69554l91.27558 0l0 53.196854l-91.27558 0z" fill-rule="evenodd"/><path fill="#000000" d="m131.8495 264.8343l0 -9.296875l-1.046875 0q-0.28125 0 -0.40625 -0.09375q-0.109375 -0.109375 -0.109375 -0.296875q0 -0.171875 0.109375 -0.28125q0.125 -0.109375 0.40625 -0.109375l4.890625 0q1.46875 0 2.375 0.84375q0.921875 0.84375 0.921875 1.96875q0 1.4375 -1.53125 2.3125q1.203125 0.4375 1.765625 1.171875q0.578125 0.71875 0.578125 1.578125q0 0.78125 -0.375 1.4375q-0.375 0.640625 -1.140625 1.09375q-0.765625 0.453125 -1.65625 0.453125l-5.828125 0q-0.28125 0 -0.40625 -0.109375q-0.109375 -0.109375 -0.109375 -0.28125q0 -0.171875 0.109375 -0.28125q0.125 -0.109375 0.40625 -0.109375l1.046875 0zm0.78125 -5.25l2.75 0q0.890625 0 1.625 -0.328125q0.5625 -0.25 0.875 -0.734375q0.3125 -0.5 0.3125 -1.015625q0 -0.734375 -0.6875 -1.34375q-0.6875 -0.625 -1.78125 -0.625l-3.09375 0l0 4.046875zm0 5.25l3.9375 0q0.75 0 1.3125 -0.328125q0.5625 -0.34375 0.84375 -0.828125q0.28125 -0.5 0.28125 -1.015625q0 -0.59375 -0.40625 -1.15625q-0.40625 -0.5625 -1.140625 -0.84375q-0.734375 -0.28125 -2.03125 -0.28125l-2.796875 0l0 4.453125zm18.308105 -3.21875q0 1.78125 -1.28125 3.046875q-1.28125 1.265625 -3.078125 1.265625q-1.8125 0 -3.09375 -1.265625q-1.265625 -1.28125 -1.265625 -3.046875q0 -1.78125 1.265625 -3.046875q1.28125 -1.265625 3.09375 -1.265625q1.796875 0 3.078125 1.265625q1.28125 1.25 1.28125 3.046875zm-0.796875 0q0 -1.46875 -1.046875 -2.5q-1.03125 -1.03125 -2.515625 -1.03125q-1.484375 0 -2.53125 1.046875q-1.046875 1.03125 -1.046875 2.484375q0 1.453125 1.046875 2.5q1.046875 1.03125 2.53125 1.03125q1.484375 0 2.515625 -1.03125q1.046875 -1.046875 1.046875 -2.5zm12.19873 0q0 1.78125 -1.28125 3.046875q-1.28125 1.265625 -3.078125 1.265625q-1.8125 0 -3.09375 -1.265625q-1.265625 -1.28125 -1.265625 -3.046875q0 -1.78125 1.265625 -3.046875q1.28125 -1.265625 3.09375 -1.265625q1.796875 0 3.078125 1.265625q1.28125 1.25 1.28125 3.046875zm-0.796875 0q0 -1.46875 -1.046875 -2.5q-1.03125 -1.03125 -2.515625 -1.03125q-1.484375 0 -2.53125 1.046875q-1.046875 1.03125 -1.046875 2.484375q0 1.453125 1.046875 2.5q1.046875 1.03125 2.53125 1.03125q1.484375 0 2.515625 -1.03125q1.046875 -1.046875 1.046875 -2.5zm6.2299805 -4.03125l4.234375 0q0.28125 0 0.390625 0.109375q0.125 0.109375 0.125 0.28125q0 0.171875 -0.125 0.28125q-0.109375 0.109375 -0.390625 0.109375l-4.234375 0l0 5.1875q0 0.6875 0.546875 1.140625q0.546875 0.453125 1.59375 0.453125q0.78125 0 1.703125 -0.234375q0.921875 -0.25 1.4375 -0.546875q0.1875 -0.109375 0.296875 -0.109375q0.15625 0 0.265625 0.125q0.109375 0.109375 0.109375 0.265625q0 0.140625 -0.125 0.25q-0.296875 0.3125 -1.4375 0.671875q-1.140625 0.359375 -2.1875 0.359375q-1.375 0 -2.1875 -0.640625q-0.796875 -0.640625 -0.796875 -1.734375l0 -5.1875l-1.4375 0q-0.28125 0 -0.40625 -0.109375q-0.109375 -0.109375 -0.109375 -0.28125q0 -0.171875 0.109375 -0.28125q0.125 -0.109375 0.40625 -0.109375l1.4375 0l0 -2.296875q0 -0.28125 0.109375 -0.40625q0.109375 -0.125 0.28125 -0.125q0.171875 0 0.28125 0.125q0.109375 0.125 0.109375 0.40625l0 2.296875z" fill-rule="nonzero"/><path fill="#000000" d="m125.64772 283.31866l1.65625 -0.140625q0.125 1.0 0.546875 1.640625q0.4375 0.640625 1.34375 1.046875q0.921875 0.390625 2.0625 0.390625q1.0 0 1.78125 -0.296875q0.78125 -0.296875 1.15625 -0.8125q0.375 -0.53125 0.375 -1.15625q0 -0.625 -0.375 -1.09375q-0.359375 -0.46875 -1.1875 -0.796875q-0.546875 -0.203125 -2.390625 -0.640625q-1.828125 -0.453125 -2.5625 -0.84375q-0.96875 -0.5 -1.4375 -1.234375q-0.46875 -0.75 -0.46875 -1.671875q0 -1.0 0.578125 -1.875q0.578125 -0.890625 1.671875 -1.34375q1.109375 -0.453125 2.453125 -0.453125q1.484375 0 2.609375 0.484375q1.140625 0.46875 1.75 1.40625q0.609375 0.921875 0.65625 2.09375l-1.6875 0.125q-0.140625 -1.265625 -0.9375 -1.90625q-0.78125 -0.65625 -2.3125 -0.65625q-1.609375 0 -2.34375 0.59375q-0.734375 0.59375 -0.734375 1.421875q0 0.71875 0.53125 1.171875q0.5 0.46875 2.65625 0.96875q2.15625 0.484375 2.953125 0.84375q1.171875 0.53125 1.71875 1.359375q0.5625 0.828125 0.5625 1.90625q0 1.0625 -0.609375 2.015625q-0.609375 0.9375 -1.75 1.46875q-1.140625 0.515625 -2.578125 0.515625q-1.8125 0 -3.046875 -0.53125q-1.21875 -0.53125 -1.921875 -1.59375q-0.6875 -1.0625 -0.71875 -2.40625zm19.459198 1.1875l1.6875 0.203125q-0.40625 1.484375 -1.484375 2.3125q-1.078125 0.8125 -2.765625 0.8125q-2.125 0 -3.375 -1.296875q-1.234375 -1.3125 -1.234375 -3.671875q0 -2.453125 1.25 -3.796875q1.265625 -1.34375 3.265625 -1.34375q1.9375 0 3.15625 1.328125q1.234375 1.3125 1.234375 3.703125q0 0.15625 0 0.4375l-7.21875 0q0.09375 1.59375 0.90625 2.453125q0.8125 0.84375 2.015625 0.84375q0.90625 0 1.546875 -0.46875q0.640625 -0.484375 1.015625 -1.515625zm-5.390625 -2.65625l5.40625 0q-0.109375 -1.21875 -0.625 -1.828125q-0.78125 -0.953125 -2.03125 -0.953125q-1.125 0 -1.90625 0.765625q-0.765625 0.75 -0.84375 2.015625zm9.125717 5.765625l0 -9.671875l1.46875 0l0 1.46875q0.5625 -1.03125 1.03125 -1.359375q0.484375 -0.328125 1.0625 -0.328125q0.828125 0 1.6875 0.53125l-0.5625 1.515625q-0.609375 -0.359375 -1.203125 -0.359375q-0.546875 0 -0.96875 0.328125q-0.421875 0.328125 -0.609375 0.890625q-0.28125 0.875 -0.28125 1.921875l0 5.0625l-1.625 0zm8.915802 0l-3.6875 -9.671875l1.734375 0l2.078125 5.796875q0.328125 0.9375 0.625 1.9375q0.203125 -0.765625 0.609375 -1.828125l2.140625 -5.90625l1.6875 0l-3.65625 9.671875l-1.53125 0zm13.265625 -3.109375l1.6875 0.203125q-0.40625 1.484375 -1.484375 2.3125q-1.078125 0.8125 -2.765625 0.8125q-2.125 0 -3.375 -1.296875q-1.234375 -1.3125 -1.234375 -3.671875q0 -2.453125 1.25 -3.796875q1.265625 -1.34375 3.265625 -1.34375q1.9375 0 3.15625 1.328125q1.234375 1.3125 1.234375 3.703125q0 0.15625 0 0.4375l-7.21875 0q0.09375 1.59375 0.90625 2.453125q0.8125 0.84375 2.015625 0.84375q0.90625 0 1.546875 -0.46875q0.640625 -0.484375 1.015625 -1.515625zm-5.390625 -2.65625l5.40625 0q-0.109375 -1.21875 -0.625 -1.828125q-0.78125 -0.953125 -2.03125 -0.953125q-1.125 0 -1.90625 0.765625q-0.765625 0.75 -0.84375 2.015625zm9.125717 5.765625l0 -9.671875l1.46875 0l0 1.46875q0.5625 -1.03125 1.03125 -1.359375q0.484375 -0.328125 1.0625 -0.328125q0.828125 0 1.6875 0.53125l-0.5625 1.515625q-0.609375 -0.359375 -1.203125 -0.359375q-0.546875 0 -0.96875 0.328125q-0.421875 0.328125 -0.609375 0.890625q-0.28125 0.875 -0.28125 1.921875l0 5.0625l-1.625 0z" fill-rule="nonzero"/><path fill="#000000" fill-opacity="0.0" d="m648.0 200.0l88.0 0l0 43.81102l-88.0 0z" fill-rule="evenodd"/><path fill="#000000" d="m672.662 226.92l0 -13.359375l2.65625 0l3.15625 9.453125q0.4375 1.328125 0.640625 1.984375q0.234375 -0.734375 0.703125 -2.140625l3.203125 -9.296875l2.375 0l0 13.359375l-1.703125 0l0 -11.171875l-3.875 11.171875l-1.59375 0l-3.859375 -11.375l0 11.375l-1.703125 0zm15.5876465 0l0 -13.359375l4.609375 0q1.546875 0 2.375 0.203125q1.140625 0.25 1.953125 0.953125q1.0625 0.890625 1.578125 2.28125q0.53125 1.390625 0.53125 3.171875q0 1.515625 -0.359375 2.703125q-0.359375 1.171875 -0.921875 1.9375q-0.546875 0.765625 -1.203125 1.21875q-0.65625 0.4375 -1.59375 0.671875q-0.9375 0.21875 -2.140625 0.21875l-4.828125 0zm1.765625 -1.578125l2.859375 0q1.3125 0 2.0625 -0.234375q0.75 -0.25 1.203125 -0.703125q0.625 -0.625 0.96875 -1.6875q0.359375 -1.0625 0.359375 -2.578125q0 -2.09375 -0.6875 -3.21875q-0.6875 -1.125 -1.671875 -1.5q-0.703125 -0.28125 -2.28125 -0.28125l-2.8125 0l0 10.203125zm11.629211 1.578125l0 -13.359375l5.015625 0q1.53125 0 2.453125 0.40625q0.921875 0.40625 1.4375 1.25q0.53125 0.84375 0.53125 1.765625q0 0.859375 -0.46875 1.625q-0.453125 0.75 -1.390625 1.203125q1.203125 0.359375 1.859375 1.21875q0.65625 0.859375 0.65625 2.015625q0 0.9375 -0.40625 1.75q-0.390625 0.796875 -0.984375 1.234375q-0.578125 0.4375 -1.453125 0.671875q-0.875 0.21875 -2.15625 0.21875l-5.09375 0zm1.78125 -7.75l2.875 0q1.1875 0 1.6875 -0.140625q0.671875 -0.203125 1.015625 -0.671875q0.34375 -0.46875 0.34375 -1.171875q0 -0.65625 -0.328125 -1.15625q-0.3125 -0.515625 -0.90625 -0.703125q-0.59375 -0.1875 -2.03125 -0.1875l-2.65625 0l0 4.03125zm0 6.171875l3.3125 0q0.859375 0 1.203125 -0.0625q0.609375 -0.109375 1.015625 -0.359375q0.421875 -0.265625 0.6875 -0.75q0.265625 -0.484375 0.265625 -1.125q0 -0.75 -0.390625 -1.296875q-0.375 -0.546875 -1.0625 -0.765625q-0.671875 -0.234375 -1.953125 -0.234375l-3.078125 0l0 4.59375z" fill-rule="nonzero"/><path fill="#000000" fill-opacity="0.0" d="m338.7874 243.20735l208.06299 0l0 43.81102l-208.06299 0z" fill-rule="evenodd"/><path fill="#000000" d="m416.70404 270.12735l0 -13.359375l5.015625 0q1.53125 0 2.453125 0.40625q0.921875 0.40625 1.4375 1.25q0.53125 0.84375 0.53125 1.765625q0 0.859375 -0.46875 1.625q-0.453125 0.75 -1.390625 1.203125q1.203125 0.359375 1.859375 1.21875q0.65625 0.859375 0.65625 2.015625q0 0.9375 -0.40625 1.75q-0.390625 0.796875 -0.984375 1.234375q-0.578125 0.4375 -1.453125 0.671875q-0.875 0.21875 -2.15625 0.21875l-5.09375 0zm1.78125 -7.75l2.875 0q1.1875 0 1.6875 -0.140625q0.671875 -0.203125 1.015625 -0.671875q0.34375 -0.46875 0.34375 -1.171875q0 -0.65625 -0.328125 -1.15625q-0.3125 -0.515625 -0.90625 -0.703125q-0.59375 -0.1875 -2.03125 -0.1875l-2.65625 0l0 4.03125zm0 6.171875l3.3125 0q0.859375 0 1.203125 -0.0625q0.609375 -0.109375 1.015625 -0.359375q0.421875 -0.265625 0.6875 -0.75q0.265625 -0.484375 0.265625 -1.125q0 -0.75 -0.390625 -1.296875q-0.375 -0.546875 -1.0625 -0.765625q-0.671875 -0.234375 -1.953125 -0.234375l-3.078125 0l0 4.59375zm10.537323 -9.890625l0 -1.890625l1.640625 0l0 1.890625l-1.640625 0zm0 11.46875l0 -9.671875l1.640625 0l0 9.671875l-1.640625 0zm4.129181 0l0 -9.671875l1.46875 0l0 1.46875q0.5625 -1.03125 1.03125 -1.359375q0.484375 -0.328125 1.0625 -0.328125q0.828125 0 1.6875 0.53125l-0.5625 1.515625q-0.609375 -0.359375 -1.203125 -0.359375q-0.546875 0 -0.96875 0.328125q-0.421875 0.328125 -0.609375 0.890625q-0.28125 0.875 -0.28125 1.921875l0 5.0625l-1.625 0zm9.806427 -1.46875l0.234375 1.453125q-0.6875 0.140625 -1.234375 0.140625q-0.890625 0 -1.390625 -0.28125q-0.484375 -0.28125 -0.6875 -0.734375q-0.203125 -0.46875 -0.203125 -1.9375l0 -5.578125l-1.203125 0l0 -1.265625l1.203125 0l0 -2.390625l1.625 -0.984375l0 3.375l1.65625 0l0 1.265625l-1.65625 0l0 5.671875q0 0.6875 0.078125 0.890625q0.09375 0.203125 0.28125 0.328125q0.203125 0.109375 0.578125 0.109375q0.265625 0 0.71875 -0.0625zm1.6051941 1.46875l0 -13.359375l1.640625 0l0 4.796875q1.140625 -1.328125 2.890625 -1.328125q1.078125 0 1.859375 0.421875q0.796875 0.421875 1.140625 1.171875q0.34375 0.75 0.34375 2.171875l0 6.125l-1.640625 0l0 -6.125q0 -1.234375 -0.53125 -1.796875q-0.53125 -0.5625 -1.515625 -0.5625q-0.71875 0 -1.359375 0.390625q-0.640625 0.375 -0.921875 1.015625q-0.265625 0.640625 -0.265625 1.78125l0 5.296875l-1.640625 0zm17.000702 -3.109375l1.6875 0.203125q-0.40625 1.484375 -1.484375 2.3125q-1.078125 0.8125 -2.765625 0.8125q-2.125 0 -3.375 -1.296875q-1.234375 -1.3125 -1.234375 -3.671875q0 -2.453125 1.25 -3.796875q1.265625 -1.34375 3.265625 -1.34375q1.9375 0 3.15625 1.328125q1.234375 1.3125 1.234375 3.703125q0 0.15625 0 0.4375l-7.21875 0q0.09375 1.59375 0.90625 2.453125q0.8125 0.84375 2.015625 0.84375q0.90625 0 1.546875 -0.46875q0.640625 -0.484375 1.015625 -1.515625zm-5.390625 -2.65625l5.40625 0q-0.109375 -1.21875 -0.625 -1.828125q-0.78125 -0.953125 -2.03125 -0.953125q-1.125 0 -1.90625 0.765625q-0.765625 0.75 -0.84375 2.015625zm9.125732 5.765625l0 -9.671875l1.46875 0l0 1.46875q0.5625 -1.03125 1.03125 -1.359375q0.484375 -0.328125 1.0625 -0.328125q0.828125 0 1.6875 0.53125l-0.5625 1.515625q-0.609375 -0.359375 -1.203125 -0.359375q-0.546875 0 -0.96875 0.328125q-0.421875 0.328125 -0.609375 0.890625q-0.28125 0.875 -0.28125 1.921875l0 5.0625l-1.625 0z" fill-rule="nonzero"/><path fill="#000000" fill-opacity="0.0" d="m191.74016 524.9041l84.7874 0l0 45.417297l-84.7874 0z" fill-rule="evenodd"/><path fill="#000000" fill-opacity="0.0" d="m191.74016 524.9041l84.7874 0l0 45.417297l-84.7874 0z" fill-rule="evenodd"/><path fill="#000000" d="m215.06354 546.7797l1.390625 -0.21875q0.109375 0.84375 0.640625 1.296875q0.546875 0.4375 1.5 0.4375q0.96875 0 1.4375 -0.390625q0.46875 -0.40625 0.46875 -0.9375q0 -0.46875 -0.40625 -0.75q-0.296875 -0.1875 -1.4375 -0.46875q-1.546875 -0.390625 -2.15625 -0.671875q-0.59375 -0.296875 -0.90625 -0.796875q-0.296875 -0.5 -0.296875 -1.109375q0 -0.5625 0.25 -1.03125q0.25 -0.46875 0.6875 -0.78125q0.328125 -0.25 0.890625 -0.40625q0.578125 -0.171875 1.21875 -0.171875q0.984375 0 1.71875 0.28125q0.734375 0.28125 1.078125 0.765625q0.359375 0.46875 0.5 1.28125l-1.375 0.1875q-0.09375 -0.640625 -0.546875 -1.0q-0.453125 -0.359375 -1.265625 -0.359375q-0.96875 0 -1.390625 0.328125q-0.40625 0.3125 -0.40625 0.734375q0 0.28125 0.171875 0.5q0.171875 0.21875 0.53125 0.375q0.21875 0.078125 1.25 0.359375q1.484375 0.390625 2.078125 0.65625q0.59375 0.25 0.921875 0.734375q0.34375 0.484375 0.34375 1.203125q0 0.703125 -0.421875 1.328125q-0.40625 0.609375 -1.1875 0.953125q-0.765625 0.34375 -1.734375 0.34375q-1.625 0 -2.46875 -0.671875q-0.84375 -0.671875 -1.078125 -2.0zm14.0 2.484375l0 -1.21875q-0.96875 1.40625 -2.640625 1.40625q-0.734375 0 -1.375 -0.28125q-0.625 -0.28125 -0.9375 -0.703125q-0.3125 -0.4375 -0.4375 -1.046875q-0.078125 -0.421875 -0.078125 -1.3125l0 -5.140625l1.40625 0l0 4.59375q0 1.109375 0.078125 1.484375q0.140625 0.5625 0.5625 0.875q0.4375 0.3125 1.0625 0.3125q0.640625 0 1.1875 -0.3125q0.5625 -0.328125 0.78125 -0.890625q0.234375 -0.5625 0.234375 -1.625l0 -4.4375l1.40625 0l0 8.296875l-1.25 0zm4.7578125 0l-1.3125 0l0 -11.453125l1.40625 0l0 4.078125q0.890625 -1.109375 2.28125 -1.109375q0.765625 0 1.4375 0.3125q0.6875 0.296875 1.125 0.859375q0.453125 0.5625 0.703125 1.359375q0.25 0.78125 0.25 1.671875q0 2.140625 -1.0625 3.3125q-1.046875 1.15625 -2.53125 1.15625q-1.46875 0 -2.296875 -1.234375l0 1.046875zm-0.015625 -4.21875q0 1.5 0.40625 2.15625q0.65625 1.09375 1.796875 1.09375q0.921875 0 1.59375 -0.796875q0.671875 -0.8125 0.671875 -2.390625q0 -1.625 -0.65625 -2.390625q-0.640625 -0.78125 -1.546875 -0.78125q-0.921875 0 -1.59375 0.796875q-0.671875 0.796875 -0.671875 2.3125zm11.671875 -1.4375q0 -2.03125 0.40625 -3.265625q0.421875 -1.234375 1.25 -1.90625q0.828125 -0.671875 2.078125 -0.671875q0.921875 0 1.609375 0.375q0.703125 0.359375 1.15625 1.0625q0.453125 0.703125 0.703125 1.703125q0.265625 1.0 0.265625 2.703125q0 2.015625 -0.421875 3.265625q-0.40625 1.234375 -1.234375 1.921875q-0.828125 0.671875 -2.078125 0.671875q-1.65625 0 -2.609375 -1.203125q-1.125 -1.421875 -1.125 -4.65625zm1.4375 0q0 2.828125 0.65625 3.765625q0.671875 0.921875 1.640625 0.921875q0.96875 0 1.625 -0.9375q0.65625 -0.9375 0.65625 -3.75q0 -2.828125 -0.65625 -3.75q-0.65625 -0.9375 -1.640625 -0.9375q-0.96875 0 -1.546875 0.828125q-0.734375 1.046875 -0.734375 3.859375z" fill-rule="nonzero"/><path fill="#000000" fill-opacity="0.0" d="m328.04462 524.9041l84.787415 0l0 45.417297l-84.787415 0z" fill-rule="evenodd"/><path fill="#000000" d="m351.368 546.7797l1.390625 -0.21875q0.109375 0.84375 0.640625 1.296875q0.546875 0.4375 1.5 0.4375q0.96875 0 1.4375 -0.390625q0.46875 -0.40625 0.46875 -0.9375q0 -0.46875 -0.40625 -0.75q-0.296875 -0.1875 -1.4375 -0.46875q-1.546875 -0.390625 -2.15625 -0.671875q-0.59375 -0.296875 -0.90625 -0.796875q-0.296875 -0.5 -0.296875 -1.109375q0 -0.5625 0.25 -1.03125q0.25 -0.46875 0.6875 -0.78125q0.328125 -0.25 0.890625 -0.40625q0.578125 -0.171875 1.21875 -0.171875q0.984375 0 1.71875 0.28125q0.734375 0.28125 1.078125 0.765625q0.359375 0.46875 0.5 1.28125l-1.375 0.1875q-0.09375 -0.640625 -0.546875 -1.0q-0.453125 -0.359375 -1.265625 -0.359375q-0.96875 0 -1.390625 0.328125q-0.40625 0.3125 -0.40625 0.734375q0 0.28125 0.171875 0.5q0.171875 0.21875 0.53125 0.375q0.21875 0.078125 1.25 0.359375q1.484375 0.390625 2.078125 0.65625q0.59375 0.25 0.921875 0.734375q0.34375 0.484375 0.34375 1.203125q0 0.703125 -0.421875 1.328125q-0.40625 0.609375 -1.1875 0.953125q-0.765625 0.34375 -1.734375 0.34375q-1.625 0 -2.46875 -0.671875q-0.84375 -0.671875 -1.078125 -2.0zm14.0 2.484375l0 -1.21875q-0.96875 1.40625 -2.640625 1.40625q-0.734375 0 -1.375 -0.28125q-0.625 -0.28125 -0.9375 -0.703125q-0.3125 -0.4375 -0.4375 -1.046875q-0.078125 -0.421875 -0.078125 -1.3125l0 -5.140625l1.40625 0l0 4.59375q0 1.109375 0.078125 1.484375q0.140625 0.5625 0.5625 0.875q0.4375 0.3125 1.0625 0.3125q0.640625 0 1.1875 -0.3125q0.5625 -0.328125 0.78125 -0.890625q0.234375 -0.5625 0.234375 -1.625l0 -4.4375l1.40625 0l0 8.296875l-1.25 0zm4.7578125 0l-1.3125 0l0 -11.453125l1.40625 0l0 4.078125q0.890625 -1.109375 2.28125 -1.109375q0.765625 0 1.4375 0.3125q0.6875 0.296875 1.125 0.859375q0.453125 0.5625 0.703125 1.359375q0.25 0.78125 0.25 1.671875q0 2.140625 -1.0625 3.3125q-1.046875 1.15625 -2.53125 1.15625q-1.46875 0 -2.296875 -1.234375l0 1.046875zm-0.015625 -4.21875q0 1.5 0.40625 2.15625q0.65625 1.09375 1.796875 1.09375q0.921875 0 1.59375 -0.796875q0.671875 -0.8125 0.671875 -2.390625q0 -1.625 -0.65625 -2.390625q-0.640625 -0.78125 -1.546875 -0.78125q-0.921875 0 -1.59375 0.796875q-0.671875 0.796875 -0.671875 2.3125zm16.96875 4.21875l-1.40625 0l0 -8.96875q-0.515625 0.484375 -1.34375 0.96875q-0.8125 0.484375 -1.46875 0.734375l0 -1.359375q1.171875 -0.5625 2.046875 -1.34375q0.890625 -0.796875 1.265625 -1.53125l0.90625 0l0 11.5z" fill-rule="nonzero"/><path fill="#000000" fill-opacity="0.0" d="m647.65356 524.9041l84.78735 0l0 45.417297l-84.78735 0z" fill-rule="evenodd"/><path fill="#000000" d="m669.6488 546.7797l1.390625 -0.21875q0.109375 0.84375 0.640625 1.296875q0.546875 0.4375 1.5 0.4375q0.96875 0 1.4375 -0.390625q0.46875 -0.40625 0.46875 -0.9375q0 -0.46875 -0.40625 -0.75q-0.296875 -0.1875 -1.4375 -0.46875q-1.546875 -0.390625 -2.15625 -0.671875q-0.59375 -0.296875 -0.90625 -0.796875q-0.296875 -0.5 -0.296875 -1.109375q0 -0.5625 0.25 -1.03125q0.25 -0.46875 0.6875 -0.78125q0.328125 -0.25 0.890625 -0.40625q0.578125 -0.171875 1.21875 -0.171875q0.984375 0 1.71875 0.28125q0.734375 0.28125 1.078125 0.765625q0.359375 0.46875 0.5 1.28125l-1.375 0.1875q-0.09375 -0.640625 -0.546875 -1.0q-0.453125 -0.359375 -1.265625 -0.359375q-0.96875 0 -1.390625 0.328125q-0.40625 0.3125 -0.40625 0.734375q0 0.28125 0.171875 0.5q0.171875 0.21875 0.53125 0.375q0.21875 0.078125 1.25 0.359375q1.484375 0.390625 2.078125 0.65625q0.59375 0.25 0.921875 0.734375q0.34375 0.484375 0.34375 1.203125q0 0.703125 -0.421875 1.328125q-0.40625 0.609375 -1.1875 0.953125q-0.765625 0.34375 -1.734375 0.34375q-1.625 0 -2.46875 -0.671875q-0.84375 -0.671875 -1.078125 -2.0zm14.0 2.484375l0 -1.21875q-0.96875 1.40625 -2.640625 1.40625q-0.734375 0 -1.375 -0.28125q-0.625 -0.28125 -0.9375 -0.703125q-0.3125 -0.4375 -0.4375 -1.046875q-0.078125 -0.421875 -0.078125 -1.3125l0 -5.140625l1.40625 0l0 4.59375q0 1.109375 0.078125 1.484375q0.140625 0.5625 0.5625 0.875q0.4375 0.3125 1.0625 0.3125q0.640625 0 1.1875 -0.3125q0.5625 -0.328125 0.78125 -0.890625q0.234375 -0.5625 0.234375 -1.625l0 -4.4375l1.40625 0l0 8.296875l-1.25 0zm4.7578125 0l-1.3125 0l0 -11.453125l1.40625 0l0 4.078125q0.890625 -1.109375 2.28125 -1.109375q0.765625 0 1.4375 0.3125q0.6875 0.296875 1.125 0.859375q0.453125 0.5625 0.703125 1.359375q0.25 0.78125 0.25 1.671875q0 2.140625 -1.0625 3.3125q-1.046875 1.15625 -2.53125 1.15625q-1.46875 0 -2.296875 -1.234375l0 1.046875zm-0.015625 -4.21875q0 1.5 0.40625 2.15625q0.65625 1.09375 1.796875 1.09375q0.921875 0 1.59375 -0.796875q0.671875 -0.8125 0.671875 -2.390625q0 -1.625 -0.65625 -2.390625q-0.640625 -0.78125 -1.546875 -0.78125q-0.921875 0 -1.59375 0.796875q-0.671875 0.796875 -0.671875 2.3125zm12.21875 4.21875l0 -11.453125l1.5625 0l6.015625 8.984375l0 -8.984375l1.453125 0l0 11.453125l-1.5625 0l-6.015625 -9.0l0 9.0l-1.453125 0z" fill-rule="nonzero"/><path fill="#000000" fill-opacity="0.0" d="m336.0 512.0l-128.0 -272.0" fill-rule="evenodd"/><path stroke="#000000" stroke-width="1.0" stroke-linejoin="round" stroke-linecap="butt" d="m336.0 512.0l-125.445206 -266.5711" fill-rule="evenodd"/><path fill="#000000" stroke="#000000" stroke-width="1.0" stroke-linecap="butt" d="m212.0493 244.72562l-3.426834 -3.4028625l0.43778992 4.8094635z" fill-rule="evenodd"/><path fill="#000000" fill-opacity="0.0" d="m208.0 280.0l115.49606 245.51184" fill-rule="evenodd"/><path stroke="#000000" stroke-width="3.0" stroke-linejoin="round" stroke-linecap="butt" d="m208.0 280.0l107.83383 229.22409" fill-rule="evenodd"/><path fill="#000000" stroke="#000000" stroke-width="3.0" stroke-linecap="butt" d="m311.35 511.3334l10.279144 10.209869l-1.3114929 -14.428528z" fill-rule="evenodd"/><path fill="#000000" fill-opacity="0.0" d="m552.50397 221.49606l95.49603 0.40945435" fill-rule="evenodd"/><path stroke="#000000" stroke-width="1.0" stroke-linejoin="round" stroke-linecap="butt" d="m552.50397 221.49606l89.49609 0.38371277" fill-rule="evenodd"/><path fill="#000000" stroke="#000000" stroke-width="1.0" stroke-linecap="butt" d="m641.993 223.53151l4.545105 -1.6322632l-4.530945 -1.6711731z" fill-rule="evenodd"/><path fill="#000000" fill-opacity="0.0" d="m646.43304 238.49869l-96.0 0" fill-rule="evenodd"/><path stroke="#000000" stroke-width="2.0" stroke-linejoin="round" stroke-linecap="butt" d="m646.43304 238.49869l-84.0 0" fill-rule="evenodd"/><path fill="#000000" stroke="#000000" stroke-width="2.0" stroke-linecap="butt" d="m562.43304 235.19522l-9.076172 3.3034668l9.076172 3.3034668z" fill-rule="evenodd"/><path fill="#000000" fill-opacity="0.0" d="m344.0 328.0l0 184.0" fill-rule="evenodd"/><path stroke="#000000" stroke-width="1.0" stroke-linejoin="round" stroke-linecap="butt" d="m344.0 328.0l0 178.0" fill-rule="evenodd"/><path fill="#000000" stroke="#000000" stroke-width="1.0" stroke-linecap="butt" d="m342.34827 506.0l1.6517334 4.538086l1.6517334 -4.538086z" fill-rule="evenodd"/><path fill="#000000" fill-opacity="0.0" d="m360.0 512.0l0 -184.0" fill-rule="evenodd"/><path stroke="#000000" stroke-width="2.0" stroke-linejoin="round" stroke-linecap="butt" d="m360.0 512.0l0 -172.0" fill-rule="evenodd"/><path fill="#000000" stroke="#000000" stroke-width="2.0" stroke-linecap="butt" d="m363.30347 340.0l-3.3034668 -9.076202l-3.3034668 9.076202z" fill-rule="evenodd"/><path fill="#000000" fill-opacity="0.0" d="m384.0 328.0l0 184.0" fill-rule="evenodd"/><path stroke="#000000" stroke-width="2.0" stroke-linejoin="round" stroke-linecap="butt" d="m384.0 328.0l0 172.0" fill-rule="evenodd"/><path fill="#000000" stroke="#000000" stroke-width="2.0" stroke-linecap="butt" d="m380.69653 500.0l3.3034668 9.076202l3.3034668 -9.076202z" fill-rule="evenodd"/><path fill="#000000" fill-opacity="0.0" d="m688.0 344.0l-270.29922 181.57483" fill-rule="evenodd"/><path stroke="#000000" stroke-width="8.0" stroke-linejoin="round" stroke-linecap="butt" d="m688.0 344.0l-230.45459 154.80902" fill-rule="evenodd"/><path fill="#000000" stroke="#000000" stroke-width="8.0" stroke-linecap="butt" d="m450.17706 487.84024l-22.768127 31.213043l37.50476 -9.275513z" fill-rule="evenodd"/><path fill="#000000" fill-opacity="0.0" d="m400.0 512.0l281.00787 -196.0" fill-rule="evenodd"/><path stroke="#000000" stroke-width="2.0" stroke-linejoin="round" stroke-linecap="butt" d="m400.0 512.0l271.16547 -189.13504" fill-rule="evenodd"/><path fill="#000000" stroke="#000000" stroke-width="2.0" stroke-linecap="butt" d="m673.05536 325.57446l5.5544434 -7.901825l-9.3341675 2.4828186z" fill-rule="evenodd"/><path fill="#000000" fill-opacity="0.0" d="m736.0 224.0l192.0 0l0 56.0l-192.0 0z" fill-rule="evenodd"/><path fill="#000000" d="m746.4375 250.92l0 -13.359375l4.609375 0q1.546875 0 2.375 0.203125q1.140625 0.25 1.953125 0.953125q1.0625 0.890625 1.578125 2.28125q0.53125 1.390625 0.53125 3.171875q0 1.515625 -0.359375 2.703125q-0.359375 1.171875 -0.921875 1.9375q-0.546875 0.765625 -1.203125 1.21875q-0.65625 0.4375 -1.59375 0.671875q-0.9375 0.21875 -2.140625 0.21875l-4.828125 0zm1.765625 -1.578125l2.859375 0q1.3125 0 2.0625 -0.234375q0.75 -0.25 1.203125 -0.703125q0.625 -0.625 0.96875 -1.6875q0.359375 -1.0625 0.359375 -2.578125q0 -2.09375 -0.6875 -3.21875q-0.6875 -1.125 -1.671875 -1.5q-0.703125 -0.28125 -2.28125 -0.28125l-2.8125 0l0 10.203125zm10.894836 -3.265625q0 -2.6875 1.484375 -3.96875q1.25 -1.078125 3.046875 -1.078125q2.0 0 3.265625 1.3125q1.265625 1.296875 1.265625 3.609375q0 1.859375 -0.5625 2.9375q-0.5625 1.0625 -1.640625 1.65625q-1.0625 0.59375 -2.328125 0.59375q-2.03125 0 -3.28125 -1.296875q-1.25 -1.3125 -1.25 -3.765625zm1.6875 0q0 1.859375 0.796875 2.796875q0.8125 0.921875 2.046875 0.921875q1.21875 0 2.03125 -0.921875q0.8125 -0.9375 0.8125 -2.84375q0 -1.796875 -0.8125 -2.71875q-0.8125 -0.921875 -2.03125 -0.921875q-1.234375 0 -2.046875 0.921875q-0.796875 0.90625 -0.796875 2.765625zm9.297546 4.84375l0 -9.671875l1.46875 0l0 1.359375q0.453125 -0.71875 1.203125 -1.140625q0.765625 -0.4375 1.71875 -0.4375q1.078125 0 1.765625 0.453125q0.6875 0.4375 0.96875 1.234375q1.15625 -1.6875 2.984375 -1.6875q1.453125 0 2.21875 0.796875q0.78125 0.796875 0.78125 2.453125l0 6.640625l-1.640625 0l0 -6.09375q0 -0.984375 -0.15625 -1.40625q-0.15625 -0.4375 -0.578125 -0.703125q-0.421875 -0.265625 -0.984375 -0.265625q-1.015625 0 -1.6875 0.6875q-0.671875 0.671875 -0.671875 2.15625l0 5.625l-1.640625 0l0 -6.28125q0 -1.09375 -0.40625 -1.640625q-0.40625 -0.546875 -1.3125 -0.546875q-0.6875 0 -1.28125 0.359375q-0.59375 0.359375 -0.859375 1.0625q-0.25 0.703125 -0.25 2.03125l0 5.015625l-1.640625 0zm15.5408325 -11.46875l0 -1.890625l1.640625 0l0 1.890625l-1.640625 0zm0 11.46875l0 -9.671875l1.640625 0l0 9.671875l-1.640625 0zm4.1448364 0l0 -9.671875l1.46875 0l0 1.375q1.0625 -1.59375 3.078125 -1.59375q0.875 0 1.609375 0.3125q0.734375 0.3125 1.09375 0.828125q0.375 0.5 0.515625 1.203125q0.09375 0.453125 0.09375 1.59375l0 5.953125l-1.640625 0l0 -5.890625q0 -1.0 -0.203125 -1.484375q-0.1875 -0.5 -0.671875 -0.796875q-0.484375 -0.296875 -1.140625 -0.296875q-1.046875 0 -1.8125 0.671875q-0.75 0.65625 -0.75 2.515625l0 5.28125l-1.640625 0zm16.688232 -1.1875q-0.921875 0.765625 -1.765625 1.09375q-0.828125 0.3125 -1.796875 0.3125q-1.59375 0 -2.453125 -0.78125q-0.859375 -0.78125 -0.859375 -1.984375q0 -0.71875 0.328125 -1.296875q0.328125 -0.59375 0.84375 -0.9375q0.53125 -0.359375 1.1875 -0.546875q0.46875 -0.125 1.453125 -0.25q1.984375 -0.234375 2.921875 -0.5625q0.015625 -0.34375 0.015625 -0.421875q0 -1.0 -0.46875 -1.421875q-0.625 -0.546875 -1.875 -0.546875q-1.15625 0 -1.703125 0.40625q-0.546875 0.40625 -0.8125 1.421875l-1.609375 -0.21875q0.21875 -1.015625 0.71875 -1.640625q0.5 -0.640625 1.453125 -0.984375q0.953125 -0.34375 2.1875 -0.34375q1.25 0 2.015625 0.296875q0.78125 0.28125 1.140625 0.734375q0.375 0.4375 0.515625 1.109375q0.078125 0.421875 0.078125 1.515625l0 2.1875q0 2.28125 0.109375 2.890625q0.109375 0.59375 0.40625 1.15625l-1.703125 0q-0.265625 -0.515625 -0.328125 -1.1875zm-0.140625 -3.671875q-0.890625 0.375 -2.671875 0.625q-1.015625 0.140625 -1.4375 0.328125q-0.421875 0.1875 -0.65625 0.53125q-0.21875 0.34375 -0.21875 0.78125q0 0.65625 0.5 1.09375q0.5 0.4375 1.453125 0.4375q0.9375 0 1.671875 -0.40625q0.75 -0.421875 1.09375 -1.140625q0.265625 -0.5625 0.265625 -1.640625l0 -0.609375zm7.7819214 3.390625l0.234375 1.453125q-0.6875 0.140625 -1.234375 0.140625q-0.890625 0 -1.390625 -0.28125q-0.484375 -0.28125 -0.6875 -0.734375q-0.203125 -0.46875 -0.203125 -1.9375l0 -5.578125l-1.203125 0l0 -1.265625l1.203125 0l0 -2.390625l1.625 -0.984375l0 3.375l1.65625 0l0 1.265625l-1.65625 0l0 5.671875q0 0.6875 0.078125 0.890625q0.09375 0.203125 0.28125 0.328125q0.203125 0.109375 0.578125 0.109375q0.265625 0 0.71875 -0.0625zm0.9957886 -3.375q0 -2.6875 1.484375 -3.96875q1.25 -1.078125 3.046875 -1.078125q2.0 0 3.265625 1.3125q1.265625 1.296875 1.265625 3.609375q0 1.859375 -0.5625 2.9375q-0.5625 1.0625 -1.640625 1.65625q-1.0625 0.59375 -2.328125 0.59375q-2.03125 0 -3.28125 -1.296875q-1.25 -1.3125 -1.25 -3.765625zm1.6875 0q0 1.859375 0.796875 2.796875q0.8125 0.921875 2.046875 0.921875q1.21875 0 2.03125 -0.921875q0.8125 -0.9375 0.8125 -2.84375q0 -1.796875 -0.8125 -2.71875q-0.8125 -0.921875 -2.03125 -0.921875q-1.234375 0 -2.046875 0.921875q-0.796875 0.90625 -0.796875 2.765625zm9.281982 4.84375l0 -9.671875l1.46875 0l0 1.46875q0.5625 -1.03125 1.03125 -1.359375q0.484375 -0.328125 1.0625 -0.328125q0.828125 0 1.6875 0.53125l-0.5625 1.515625q-0.609375 -0.359375 -1.203125 -0.359375q-0.546875 0 -0.96875 0.328125q-0.421875 0.328125 -0.609375 0.890625q-0.28125 0.875 -0.28125 1.921875l0 5.0625l-1.625 0zm11.020996 -4.296875l1.65625 -0.140625q0.125 1.0 0.546875 1.640625q0.4375 0.640625 1.34375 1.046875q0.921875 0.390625 2.0625 0.390625q1.0 0 1.78125 -0.296875q0.78125 -0.296875 1.15625 -0.8125q0.375 -0.53125 0.375 -1.15625q0 -0.625 -0.375 -1.09375q-0.359375 -0.46875 -1.1875 -0.796875q-0.546875 -0.203125 -2.390625 -0.640625q-1.828125 -0.453125 -2.5625 -0.84375q-0.96875 -0.5 -1.4375 -1.234375q-0.46875 -0.75 -0.46875 -1.671875q0 -1.0 0.578125 -1.875q0.578125 -0.890625 1.671875 -1.34375q1.109375 -0.453125 2.453125 -0.453125q1.484375 0 2.609375 0.484375q1.140625 0.46875 1.75 1.40625q0.609375 0.921875 0.65625 2.09375l-1.6875 0.125q-0.140625 -1.265625 -0.9375 -1.90625q-0.78125 -0.65625 -2.3125 -0.65625q-1.609375 0 -2.34375 0.59375q-0.734375 0.59375 -0.734375 1.421875q0 0.71875 0.53125 1.171875q0.5 0.46875 2.65625 0.96875q2.15625 0.484375 2.953125 0.84375q1.171875 0.53125 1.71875 1.359375q0.5625 0.828125 0.5625 1.90625q0 1.0625 -0.609375 2.015625q-0.609375 0.9375 -1.75 1.46875q-1.140625 0.515625 -2.578125 0.515625q-1.8125 0 -3.046875 -0.53125q-1.21875 -0.53125 -1.921875 -1.59375q-0.6875 -1.0625 -0.71875 -2.40625zm12.7561035 8.015625l-0.1875 -1.53125q0.546875 0.140625 0.9375 0.140625q0.546875 0 0.875 -0.1875q0.328125 -0.171875 0.546875 -0.5q0.15625 -0.25 0.5 -1.21875q0.046875 -0.140625 0.140625 -0.40625l-3.671875 -9.6875l1.765625 0l2.015625 5.59375q0.390625 1.078125 0.703125 2.25q0.28125 -1.125 0.671875 -2.203125l2.078125 -5.640625l1.640625 0l-3.6875 9.828125q-0.59375 1.609375 -0.921875 2.203125q-0.4375 0.8125 -1.0 1.1875q-0.5625 0.375 -1.34375 0.375q-0.484375 0 -1.0625 -0.203125zm8.75 -6.609375l1.625 -0.25q0.125 0.96875 0.75 1.5q0.625 0.515625 1.75 0.515625q1.125 0 1.671875 -0.453125q0.546875 -0.46875 0.546875 -1.09375q0 -0.546875 -0.484375 -0.875q-0.328125 -0.21875 -1.671875 -0.546875q-1.8125 -0.46875 -2.515625 -0.796875q-0.6875 -0.328125 -1.046875 -0.90625q-0.359375 -0.59375 -0.359375 -1.3125q0 -0.640625 0.296875 -1.1875q0.296875 -0.5625 0.8125 -0.921875q0.375 -0.28125 1.03125 -0.46875q0.671875 -0.203125 1.421875 -0.203125q1.140625 0 2.0 0.328125q0.859375 0.328125 1.265625 0.890625q0.421875 0.5625 0.578125 1.5l-1.609375 0.21875q-0.109375 -0.75 -0.640625 -1.171875q-0.515625 -0.421875 -1.46875 -0.421875q-1.140625 0 -1.625 0.375q-0.46875 0.375 -0.46875 0.875q0 0.3125 0.1875 0.578125q0.203125 0.265625 0.640625 0.4375q0.234375 0.09375 1.4375 0.421875q1.75 0.453125 2.4375 0.75q0.6875 0.296875 1.078125 0.859375q0.390625 0.5625 0.390625 1.40625q0 0.828125 -0.484375 1.546875q-0.46875 0.71875 -1.375 1.125q-0.90625 0.390625 -2.046875 0.390625q-1.875 0 -2.875 -0.78125q-0.984375 -0.78125 -1.25 -2.328125zm13.5625 1.421875l0.234375 1.453125q-0.6875 0.140625 -1.234375 0.140625q-0.890625 0 -1.390625 -0.28125q-0.484375 -0.28125 -0.6875 -0.734375q-0.203125 -0.46875 -0.203125 -1.9375l0 -5.578125l-1.203125 0l0 -1.265625l1.203125 0l0 -2.390625l1.625 -0.984375l0 3.375l1.65625 0l0 1.265625l-1.65625 0l0 5.671875q0 0.6875 0.078125 0.890625q0.09375 0.203125 0.28125 0.328125q0.203125 0.109375 0.578125 0.109375q0.265625 0 0.71875 -0.0625zm8.230164 -1.640625l1.6875 0.203125q-0.40625 1.484375 -1.484375 2.3125q-1.078125 0.8125 -2.765625 0.8125q-2.125 0 -3.375 -1.296875q-1.234375 -1.3125 -1.234375 -3.671875q0 -2.453125 1.25 -3.796875q1.265625 -1.34375 3.265625 -1.34375q1.9375 0 3.15625 1.328125q1.234375 1.3125 1.234375 3.703125q0 0.15625 0 0.4375l-7.21875 0q0.09375 1.59375 0.90625 2.453125q0.8125 0.84375 2.015625 0.84375q0.90625 0 1.546875 -0.46875q0.640625 -0.484375 1.015625 -1.515625zm-5.390625 -2.65625l5.40625 0q-0.109375 -1.21875 -0.625 -1.828125q-0.78125 -0.953125 -2.03125 -0.953125q-1.125 0 -1.90625 0.765625q-0.765625 0.75 -0.84375 2.015625zm9.141296 5.765625l0 -9.671875l1.46875 0l0 1.359375q0.453125 -0.71875 1.203125 -1.140625q0.765625 -0.4375 1.71875 -0.4375q1.078125 0 1.765625 0.453125q0.6875 0.4375 0.96875 1.234375q1.15625 -1.6875 2.984375 -1.6875q1.453125 0 2.21875 0.796875q0.78125 0.796875 0.78125 2.453125l0 6.640625l-1.640625 0l0 -6.09375q0 -0.984375 -0.15625 -1.40625q-0.15625 -0.4375 -0.578125 -0.703125q-0.421875 -0.265625 -0.984375 -0.265625q-1.015625 0 -1.6875 0.6875q-0.671875 0.671875 -0.671875 2.15625l0 5.625l-1.640625 0l0 -6.28125q0 -1.09375 -0.40625 -1.640625q-0.40625 -0.546875 -1.3125 -0.546875q-0.6875 0 -1.28125 0.359375q-0.59375 0.359375 -0.859375 1.0625q-0.25 0.703125 -0.25 2.03125l0 5.015625l-1.640625 0z" fill-rule="nonzero"/></g></svg>